<mxfile host="app.diagrams.net" modified="2023-12-07T13:49:38.344Z" agent="Mozilla/5.0 (Windows NT 10.0; Win64; x64) AppleWebKit/537.36 (KHTML, like Gecko) Chrome/119.0.0.0 Safari/537.36" etag="etlK5qWfty7KVNAdbH8I" version="22.1.7" type="github">
  <diagram name="Page-1" id="9W5EAdGtC44kiYuYa2hc">
    <mxGraphModel dx="1050" dy="574" grid="1" gridSize="10" guides="1" tooltips="1" connect="1" arrows="1" fold="1" page="1" pageScale="1" pageWidth="850" pageHeight="1100" math="0" shadow="0">
      <root>
        <mxCell id="0" />
        <mxCell id="1" parent="0" />
        <mxCell id="KPeqagEkYrqyDwO1NMMB-2" style="edgeStyle=orthogonalEdgeStyle;rounded=0;orthogonalLoop=1;jettySize=auto;html=1;" edge="1" parent="1" source="KPeqagEkYrqyDwO1NMMB-1" target="KPeqagEkYrqyDwO1NMMB-3">
          <mxGeometry relative="1" as="geometry">
            <mxPoint x="400" y="350" as="targetPoint" />
          </mxGeometry>
        </mxCell>
        <mxCell id="KPeqagEkYrqyDwO1NMMB-1" value="&lt;font style=&quot;font-size: 19px;&quot;&gt;Start Function&lt;/font&gt;" style="ellipse;whiteSpace=wrap;html=1;" vertex="1" parent="1">
          <mxGeometry x="270" y="100" width="260" height="180" as="geometry" />
        </mxCell>
        <mxCell id="KPeqagEkYrqyDwO1NMMB-4" style="edgeStyle=orthogonalEdgeStyle;rounded=0;orthogonalLoop=1;jettySize=auto;html=1;" edge="1" parent="1" source="KPeqagEkYrqyDwO1NMMB-3">
          <mxGeometry relative="1" as="geometry">
            <mxPoint x="400" y="440" as="targetPoint" />
          </mxGeometry>
        </mxCell>
        <mxCell id="KPeqagEkYrqyDwO1NMMB-3" value="num = 0&lt;br&gt;count = 0&lt;br&gt;prime_list = []" style="rounded=0;whiteSpace=wrap;html=1;" vertex="1" parent="1">
          <mxGeometry x="340" y="340" width="120" height="60" as="geometry" />
        </mxCell>
        <mxCell id="KPeqagEkYrqyDwO1NMMB-8" style="edgeStyle=orthogonalEdgeStyle;rounded=0;orthogonalLoop=1;jettySize=auto;html=1;entryX=0.5;entryY=0;entryDx=0;entryDy=0;" edge="1" parent="1" source="KPeqagEkYrqyDwO1NMMB-6" target="KPeqagEkYrqyDwO1NMMB-7">
          <mxGeometry relative="1" as="geometry" />
        </mxCell>
        <mxCell id="KPeqagEkYrqyDwO1NMMB-17" value="YES" style="edgeLabel;html=1;align=center;verticalAlign=middle;resizable=0;points=[];" vertex="1" connectable="0" parent="KPeqagEkYrqyDwO1NMMB-8">
          <mxGeometry x="-0.2" y="-3" relative="1" as="geometry">
            <mxPoint as="offset" />
          </mxGeometry>
        </mxCell>
        <mxCell id="KPeqagEkYrqyDwO1NMMB-9" style="edgeStyle=orthogonalEdgeStyle;rounded=0;orthogonalLoop=1;jettySize=auto;html=1;" edge="1" parent="1" source="KPeqagEkYrqyDwO1NMMB-6">
          <mxGeometry relative="1" as="geometry">
            <mxPoint x="280" y="495" as="targetPoint" />
          </mxGeometry>
        </mxCell>
        <mxCell id="KPeqagEkYrqyDwO1NMMB-16" value="NO" style="edgeLabel;html=1;align=center;verticalAlign=middle;resizable=0;points=[];" vertex="1" connectable="0" parent="KPeqagEkYrqyDwO1NMMB-9">
          <mxGeometry x="-0.2245" y="-1" relative="1" as="geometry">
            <mxPoint as="offset" />
          </mxGeometry>
        </mxCell>
        <mxCell id="KPeqagEkYrqyDwO1NMMB-6" value="Is count &amp;gt; 101" style="rhombus;whiteSpace=wrap;html=1;" vertex="1" parent="1">
          <mxGeometry x="345" y="440" width="110" height="110" as="geometry" />
        </mxCell>
        <mxCell id="KPeqagEkYrqyDwO1NMMB-12" style="edgeStyle=orthogonalEdgeStyle;rounded=0;orthogonalLoop=1;jettySize=auto;html=1;" edge="1" parent="1" source="KPeqagEkYrqyDwO1NMMB-7">
          <mxGeometry relative="1" as="geometry">
            <mxPoint x="400" y="820" as="targetPoint" />
          </mxGeometry>
        </mxCell>
        <mxCell id="KPeqagEkYrqyDwO1NMMB-19" value="YES" style="edgeLabel;html=1;align=center;verticalAlign=middle;resizable=0;points=[];" vertex="1" connectable="0" parent="KPeqagEkYrqyDwO1NMMB-12">
          <mxGeometry x="-0.2044" y="2" relative="1" as="geometry">
            <mxPoint as="offset" />
          </mxGeometry>
        </mxCell>
        <mxCell id="KPeqagEkYrqyDwO1NMMB-13" style="edgeStyle=orthogonalEdgeStyle;rounded=0;orthogonalLoop=1;jettySize=auto;html=1;exitX=1;exitY=0.5;exitDx=0;exitDy=0;" edge="1" parent="1" source="KPeqagEkYrqyDwO1NMMB-7" target="KPeqagEkYrqyDwO1NMMB-14">
          <mxGeometry relative="1" as="geometry">
            <mxPoint x="530" y="675" as="targetPoint" />
          </mxGeometry>
        </mxCell>
        <mxCell id="KPeqagEkYrqyDwO1NMMB-18" value="NO" style="edgeLabel;html=1;align=center;verticalAlign=middle;resizable=0;points=[];" vertex="1" connectable="0" parent="KPeqagEkYrqyDwO1NMMB-13">
          <mxGeometry x="0.0259" y="-1" relative="1" as="geometry">
            <mxPoint as="offset" />
          </mxGeometry>
        </mxCell>
        <mxCell id="KPeqagEkYrqyDwO1NMMB-7" value="Is num == prime" style="rhombus;whiteSpace=wrap;html=1;" vertex="1" parent="1">
          <mxGeometry x="345" y="620" width="110" height="110" as="geometry" />
        </mxCell>
        <mxCell id="KPeqagEkYrqyDwO1NMMB-11" value="Print prime_list" style="shape=parallelogram;perimeter=parallelogramPerimeter;whiteSpace=wrap;html=1;fixedSize=1;" vertex="1" parent="1">
          <mxGeometry x="170" y="460" width="120" height="60" as="geometry" />
        </mxCell>
        <mxCell id="KPeqagEkYrqyDwO1NMMB-15" style="edgeStyle=orthogonalEdgeStyle;rounded=0;orthogonalLoop=1;jettySize=auto;html=1;entryX=1;entryY=0.5;entryDx=0;entryDy=0;" edge="1" parent="1" source="KPeqagEkYrqyDwO1NMMB-14" target="KPeqagEkYrqyDwO1NMMB-3">
          <mxGeometry relative="1" as="geometry">
            <Array as="points">
              <mxPoint x="575" y="370" />
            </Array>
          </mxGeometry>
        </mxCell>
        <mxCell id="KPeqagEkYrqyDwO1NMMB-14" value="count += 1&lt;br&gt;num += 1" style="rounded=0;whiteSpace=wrap;html=1;" vertex="1" parent="1">
          <mxGeometry x="540" y="652.5" width="70" height="45" as="geometry" />
        </mxCell>
        <mxCell id="KPeqagEkYrqyDwO1NMMB-21" style="edgeStyle=orthogonalEdgeStyle;rounded=0;orthogonalLoop=1;jettySize=auto;html=1;entryX=0.5;entryY=1;entryDx=0;entryDy=0;" edge="1" parent="1" source="KPeqagEkYrqyDwO1NMMB-20" target="KPeqagEkYrqyDwO1NMMB-14">
          <mxGeometry relative="1" as="geometry" />
        </mxCell>
        <mxCell id="KPeqagEkYrqyDwO1NMMB-20" value="Append num to prime list" style="rounded=0;whiteSpace=wrap;html=1;" vertex="1" parent="1">
          <mxGeometry x="340" y="820" width="120" height="60" as="geometry" />
        </mxCell>
      </root>
    </mxGraphModel>
  </diagram>
</mxfile>
